<?xml version="1.0" encoding="utf-8"?>
<!-- Generator: Adobe Illustrator 22.0.0, SVG Export Plug-In . SVG Version: 6.00 Build 0)  -->
<svg version="1.1" id="Layer_1" xmlns="http://www.w3.org/2000/svg" xmlns:xlink="http://www.w3.org/1999/xlink" x="0px" y="0px"
	 viewBox="0 0 78.2 47" style="enable-background:new 0 0 78.2 47;" xml:space="preserve">
<style type="text/css">
	.st0{fill:#44D62C;}
</style>
<title>razer-nari-logo</title>
<g id="Layer_1_1_">
	<polygon class="st0" points="33.2,14.6 30,14.6 32.8,9.7 33.2,9 32.4,9 28.7,9 28.7,9.7 32,9.7 29.1,14.6 28.7,15.4 29.5,15.4 
		32.8,15.4 	"/>
	<polygon class="st0" points="42.1,9 37.6,9 37.6,9.7 41.7,9.7 	"/>
	<polygon class="st0" points="42.1,11.8 37.6,11.8 37.6,12.5 41.7,12.5 	"/>
	<polygon class="st0" points="42.1,14.6 37.6,14.6 37.6,15.4 41.7,15.4 	"/>
	<path class="st0" d="M51,11v-0.4C51,9.7,50.3,9,49.5,9c0,0,0,0,0,0h-2.9v6.4h0.7v-2.8h1.3l1.6,2.8H51l-1.6-2.8h0.1
		C50.3,12.5,51,11.8,51,11z M47.2,9.7h2.2c0.5,0,0.9,0.4,0.9,0.9c0,0,0,0,0,0V11c0,0.5-0.4,0.9-0.8,0.9c0,0,0,0,0,0h-2.2V9.7z"/>
	<path class="st0" d="M15.4,11v-0.4c0-0.9-0.7-1.6-1.5-1.6c0,0,0,0,0,0h-2.9v6.4h0.7v-2.8h1.3l1.6,2.8h0.8l-1.6-2.8h0.1
		C14.7,12.5,15.4,11.8,15.4,11z M11.6,9.7h2.2c0.5,0,0.9,0.4,0.9,0.9V11c0,0.5-0.4,0.9-0.9,0.9c0,0,0,0,0,0h-2.2V9.7z"/>
	<polygon class="st0" points="20.2,15.4 22,10.9 23.9,15.4 24.6,15.4 22.4,9.9 22,9 21.7,9.9 19.5,15.4 	"/>
	<polygon class="st0" points="51.4,9.3 51.4,9.1 52.4,9.1 52.4,9.3 52,9.3 52,10.4 51.8,10.4 51.8,9.3 	"/>
	<polygon class="st0" points="52.7,10.4 52.7,9.1 53,9.1 53.4,10.2 53.7,9.1 54,9.1 54,10.4 53.8,10.4 53.8,9.3 53.8,9.3 53.4,10.4 
		53.3,10.4 52.9,9.3 52.9,9.3 52.9,10.4 	"/>
</g>
</svg>
